<?xml version="1.0" standalone="no"?>
<!DOCTYPE svg PUBLIC "-//W3C//DTD SVG 1.1//EN" "http://www.w3.org/Graphics/SVG/1.1/DTD/svg11.dtd">

<svg width="800" height="500" version="1.1" xmlns="http://www.w3.org/2000/svg">
	<ellipse stroke="black" stroke-width="1" fill="none" cx="379.5" cy="30.5" rx="30" ry="30"/>
	<text x="371.5" y="36.5" font-family="Times New Roman" font-size="20">a</text>
	<ellipse stroke="black" stroke-width="1" fill="none" cx="379.5" cy="112.5" rx="30" ry="30"/>
	<text x="370.5" y="118.5" font-family="Times New Roman" font-size="20">b</text>
	<ellipse stroke="black" stroke-width="1" fill="none" cx="379.5" cy="196.5" rx="30" ry="30"/>
	<text x="371.5" y="202.5" font-family="Times New Roman" font-size="20">c</text>
	<ellipse stroke="black" stroke-width="1" fill="none" cx="379.5" cy="277.5" rx="30" ry="30"/>
	<text x="370.5" y="283.5" font-family="Times New Roman" font-size="20">1</text>
	<ellipse stroke="black" stroke-width="1" fill="none" cx="379.5" cy="372.5" rx="30" ry="30"/>
	<text x="370.5" y="378.5" font-family="Times New Roman" font-size="20">2</text>
	<ellipse stroke="black" stroke-width="1" fill="none" cx="379.5" cy="453.5" rx="30" ry="30"/>
	<text x="370.5" y="459.5" font-family="Times New Roman" font-size="20">3</text>
	<polygon stroke="black" stroke-width="1" points="379.5,60.5 379.5,82.5"/>
	<polygon fill="black" stroke-width="1" points="379.5,82.5 384.5,74.5 374.5,74.5"/>
	<polygon stroke="black" stroke-width="1" points="379.5,142.5 379.5,166.5"/>
	<polygon fill="black" stroke-width="1" points="379.5,166.5 384.5,158.5 374.5,158.5"/>
	<polygon stroke="black" stroke-width="1" points="379.5,226.5 379.5,247.5"/>
	<polygon fill="black" stroke-width="1" points="379.5,247.5 384.5,239.5 374.5,239.5"/>
	<polygon stroke="black" stroke-width="1" points="379.5,307.5 379.5,342.5"/>
	<polygon fill="black" stroke-width="1" points="379.5,342.5 384.5,334.5 374.5,334.5"/>
	<polygon stroke="black" stroke-width="1" points="379.5,402.5 379.5,423.5"/>
	<polygon fill="black" stroke-width="1" points="379.5,423.5 384.5,415.5 374.5,415.5"/>
</svg>