<?xml version="1.0" standalone="no"?>
<!DOCTYPE svg PUBLIC "-//W3C//DTD SVG 1.1//EN" "http://www.w3.org/Graphics/SVG/1.1/DTD/svg11.dtd">

<svg width="400" height="250" version="1.1" xmlns="http://www.w3.org/2000/svg">
	<ellipse stroke="black" stroke-width="1" fill="none" cx="168.5" cy="35.5" rx="30" ry="30"/>
	<text x="161.5" y="41.5" font-family="Times New Roman" font-size="20">A</text>
	<ellipse stroke="black" stroke-width="1" fill="none" cx="73.5" cy="118.5" rx="30" ry="30"/>
	<text x="66.5" y="124.5" font-family="Times New Roman" font-size="20">B</text>
	<ellipse stroke="black" stroke-width="1" fill="none" cx="168.5" cy="118.5" rx="30" ry="30"/>
	<text x="161.5" y="124.5" font-family="Times New Roman" font-size="20">C</text>
	<ellipse stroke="black" stroke-width="1" fill="none" cx="268.5" cy="118.5" rx="30" ry="30"/>
	<text x="261.5" y="124.5" font-family="Times New Roman" font-size="20">D</text>
	<ellipse stroke="black" stroke-width="1" fill="none" cx="35.5" cy="203.5" rx="30" ry="30"/>
	<text x="29.5" y="209.5" font-family="Times New Roman" font-size="20">E</text>
	<ellipse stroke="black" stroke-width="1" fill="none" cx="118.5" cy="203.5" rx="30" ry="30"/>
	<text x="112.5" y="209.5" font-family="Times New Roman" font-size="20">F</text>
	<ellipse stroke="black" stroke-width="1" fill="none" cx="218.5" cy="203.5" rx="30" ry="30"/>
	<text x="211.5" y="209.5" font-family="Times New Roman" font-size="20">G</text>
	<ellipse stroke="black" stroke-width="1" fill="none" cx="286.5" cy="203.5" rx="30" ry="30"/>
	<text x="279.5" y="209.5" font-family="Times New Roman" font-size="20">H</text>
	<ellipse stroke="black" stroke-width="1" fill="none" cx="357.5" cy="203.5" rx="30" ry="30"/>
	<text x="354.5" y="209.5" font-family="Times New Roman" font-size="20">I</text>
	<polygon stroke="black" stroke-width="1" points="145.908,55.238 96.092,98.762"/>
	<polygon fill="black" stroke-width="1" points="96.092,98.762 105.406,97.263 98.827,89.733"/>
	<polygon stroke="black" stroke-width="1" points="168.5,65.5 168.5,88.5"/>
	<polygon fill="black" stroke-width="1" points="168.5,88.5 173.5,80.5 163.5,80.5"/>
	<polygon stroke="black" stroke-width="1" points="191.584,54.66 245.416,99.34"/>
	<polygon fill="black" stroke-width="1" points="245.416,99.34 242.453,90.383 236.066,98.078"/>
	<polygon stroke="black" stroke-width="1" points="61.256,145.888 47.744,176.112"/>
	<polygon fill="black" stroke-width="1" points="47.744,176.112 55.574,170.85 46.444,166.768"/>
	<polygon stroke="black" stroke-width="1" points="87.537,145.014 104.463,176.986"/>
	<polygon fill="black" stroke-width="1" points="104.463,176.986 105.139,167.577 96.301,172.255"/>
	<polygon stroke="black" stroke-width="1" points="253.289,144.358 233.711,177.642"/>
	<polygon fill="black" stroke-width="1" points="233.711,177.642 242.076,173.282 233.457,168.211"/>
	<polygon stroke="black" stroke-width="1" points="274.715,147.849 280.285,174.151"/>
	<polygon fill="black" stroke-width="1" points="280.285,174.151 283.519,165.289 273.736,167.36"/>
	<polygon stroke="black" stroke-width="1" points="290.195,139.22 335.805,182.78"/>
	<polygon fill="black" stroke-width="1" points="335.805,182.78 333.473,173.639 326.566,180.87"/>
</svg>
