<?xml version="1.0" standalone="no"?>
<!DOCTYPE svg PUBLIC "-//W3C//DTD SVG 1.1//EN" "http://www.w3.org/Graphics/SVG/1.1/DTD/svg11.dtd">

<svg width="500" height="270" version="1.1" xmlns="http://www.w3.org/2000/svg">
	<ellipse stroke="black" stroke-width="1" fill="none" cx="173.5" cy="42.5" rx="30" ry="30"/>
	<text x="164.5" y="48.5" font-family="Times New Roman" font-size="20">W</text>
	<ellipse stroke="black" stroke-width="1" fill="none" cx="97.5" cy="131.5" rx="30" ry="30"/>
	<text x="91.5" y="137.5" font-family="Times New Roman" font-size="20">T</text>
	<ellipse stroke="black" stroke-width="1" fill="none" cx="173.5" cy="140.5" rx="30" ry="30"/>
	<text x="166.5" y="146.5" font-family="Times New Roman" font-size="20">G</text>
	<ellipse stroke="black" stroke-width="1" fill="none" cx="267.5" cy="131.5" rx="30" ry="30"/>
	<text x="260.5" y="137.5" font-family="Times New Roman" font-size="20">D</text>
	<ellipse stroke="black" stroke-width="1" fill="none" cx="135.5" cy="235.5" rx="30" ry="30"/>
	<text x="128.5" y="241.5" font-family="Times New Roman" font-size="20">X</text>
	<ellipse stroke="black" stroke-width="1" fill="none" cx="199.5" cy="235.5" rx="30" ry="30"/>
	<text x="192.5" y="241.5" font-family="Times New Roman" font-size="20">B</text>
	<ellipse stroke="black" stroke-width="1" fill="none" cx="267.5" cy="235.5" rx="30" ry="30"/>
	<text x="260.5" y="241.5" font-family="Times New Roman" font-size="20">N</text>
	<ellipse stroke="black" stroke-width="1" fill="none" cx="310.5" cy="42.5" rx="30" ry="30"/>
	<text x="304.5" y="48.5" font-family="Times New Roman" font-size="20">E</text>
	<ellipse stroke="black" stroke-width="1" fill="none" cx="346.5" cy="131.5" rx="30" ry="30"/>
	<text x="340.5" y="137.5" font-family="Times New Roman" font-size="20">Z</text>
	<polygon stroke="black" stroke-width="1" points="154.019,65.314 116.981,108.686"/>
	<polygon fill="black" stroke-width="1" points="116.981,108.686 125.979,105.849 118.374,99.356"/>
	<polygon stroke="black" stroke-width="1" points="173.5,72.5 173.5,110.5"/>
	<polygon fill="black" stroke-width="1" points="173.5,110.5 178.5,102.5 168.5,102.5"/>
	<polygon stroke="black" stroke-width="1" points="297.449,69.512 280.551,104.488"/>
	<polygon fill="black" stroke-width="1" points="280.551,104.488 288.533,99.459 279.529,95.109"/>
	<polygon stroke="black" stroke-width="1" points="321.749,70.311 335.251,103.689"/>
	<polygon fill="black" stroke-width="1" points="335.251,103.689 336.886,94.398 327.616,98.148"/>
	<polygon stroke="black" stroke-width="1" points="162.358,168.354 146.642,207.646"/>
	<polygon fill="black" stroke-width="1" points="146.642,207.646 154.255,202.075 144.97,198.361"/>
	<polygon stroke="black" stroke-width="1" points="181.419,169.436 191.581,206.564"/>
	<polygon fill="black" stroke-width="1" points="191.581,206.564 194.292,197.528 184.646,200.168"/>
	<polygon stroke="black" stroke-width="1" points="267.5,161.5 267.5,205.5"/>
	<polygon fill="black" stroke-width="1" points="267.5,205.5 272.5,197.5 262.5,197.5"/>
</svg>
