<?xml version="1.0" standalone="no"?>
<!DOCTYPE svg PUBLIC "-//W3C//DTD SVG 1.1//EN" "http://www.w3.org/Graphics/SVG/1.1/DTD/svg11.dtd">

<svg width="650" height="330" version="1.1" xmlns="http://www.w3.org/2000/svg">
	<ellipse stroke="black" stroke-width="1" fill="none" cx="334.5" cy="53.5" rx="30" ry="30"/>
	<text x="324.5" y="59.5" font-family="Times New Roman" font-size="20">50</text>
	<ellipse stroke="black" stroke-width="1" fill="none" cx="271.5" cy="123.5" rx="30" ry="30"/>
	<text x="261.5" y="129.5" font-family="Times New Roman" font-size="20">30</text>
	<ellipse stroke="black" stroke-width="1" fill="none" cx="401.5" cy="123.5" rx="30" ry="30"/>
	<text x="391.5" y="129.5" font-family="Times New Roman" font-size="20">80</text>
	<ellipse stroke="black" stroke-width="1" fill="none" cx="217.5" cy="200.5" rx="30" ry="30"/>
	<text x="207.5" y="206.5" font-family="Times New Roman" font-size="20">10</text>
	<ellipse stroke="black" stroke-width="1" fill="none" cx="316.5" cy="209.5" rx="30" ry="30"/>
	<text x="306.5" y="215.5" font-family="Times New Roman" font-size="20">40</text>
	<ellipse stroke="black" stroke-width="1" fill="none" cx="378.5" cy="209.5" rx="30" ry="30"/>
	<text x="368.5" y="215.5" font-family="Times New Roman" font-size="20">51</text>
	<ellipse stroke="black" stroke-width="1" fill="none" cx="462.5" cy="200.5" rx="30" ry="30"/>
	<text x="452.5" y="206.5" font-family="Times New Roman" font-size="20">82</text>
	<ellipse stroke="black" stroke-width="1" fill="none" cx="161.5" cy="284.5" rx="30" ry="30"/>
	<text x="156.5" y="290.5" font-family="Times New Roman" font-size="20">1</text>
	<ellipse stroke="black" stroke-width="1" fill="none" cx="260.5" cy="292.5" rx="30" ry="30"/>
	<text x="250.5" y="298.5" font-family="Times New Roman" font-size="20">15</text>
	<ellipse stroke="black" stroke-width="1" fill="none" cx="348.5" cy="284.5" rx="30" ry="30"/>
	<text x="338.5" y="290.5" font-family="Times New Roman" font-size="20">45</text>
	<ellipse stroke="black" stroke-width="1" fill="none" cx="439.5" cy="284.5" rx="30" ry="30"/>
	<text x="429.5" y="290.5" font-family="Times New Roman" font-size="20">81</text>
	<ellipse stroke="black" stroke-width="1" fill="none" cx="524.5" cy="284.5" rx="30" ry="30"/>
	<text x="514.5" y="290.5" font-family="Times New Roman" font-size="20">95</text>
	<polygon stroke="black" stroke-width="1" points="314.431,75.799 291.569,101.201"/>
	<polygon fill="black" stroke-width="1" points="291.569,101.201 300.637,98.6 293.204,91.91"/>
	<polygon stroke="black" stroke-width="1" points="355.244,75.173 380.756,101.827"/>
	<polygon fill="black" stroke-width="1" points="380.756,101.827 378.837,92.591 371.613,99.505"/>
	<polygon stroke="black" stroke-width="1" points="254.275,148.062 234.725,175.938"/>
	<polygon fill="black" stroke-width="1" points="234.725,175.938 243.412,172.259 235.225,166.517"/>
	<polygon stroke="black" stroke-width="1" points="285.409,150.081 302.591,182.919"/>
	<polygon fill="black" stroke-width="1" points="302.591,182.919 303.313,173.513 294.452,178.149"/>
	<polygon stroke="black" stroke-width="1" points="200.859,225.462 178.141,259.538"/>
	<polygon fill="black" stroke-width="1" points="178.141,259.538 186.739,255.656 178.418,250.109"/>
	<polygon stroke="black" stroke-width="1" points="230.203,227.678 247.797,265.322"/>
	<polygon fill="black" stroke-width="1" points="247.797,265.322 248.94,255.957 239.88,260.192"/>
	<polygon stroke="black" stroke-width="1" points="393.749,152.481 386.251,180.519"/>
	<polygon fill="black" stroke-width="1" points="386.251,180.519 393.148,174.082 383.488,171.498"/>
	<polygon stroke="black" stroke-width="1" points="420.129,147.015 443.871,176.985"/>
	<polygon fill="black" stroke-width="1" points="443.871,176.985 442.823,167.609 434.984,173.819"/>
	<polygon stroke="black" stroke-width="1" points="328.273,237.093 336.727,256.907"/>
	<polygon fill="black" stroke-width="1" points="336.727,256.907 338.186,247.586 328.988,251.511"/>
	<polygon stroke="black" stroke-width="1" points="454.577,229.435 447.423,255.565"/>
	<polygon fill="black" stroke-width="1" points="447.423,255.565 454.358,249.17 444.713,246.529"/>
	<polygon stroke="black" stroke-width="1" points="480.316,224.637 506.684,260.363"/>
	<polygon fill="black" stroke-width="1" points="506.684,260.363 505.956,250.957 497.911,256.895"/>
</svg>
