<?xml version="1.0" standalone="no"?>
<!DOCTYPE svg PUBLIC "-//W3C//DTD SVG 1.1//EN" "http://www.w3.org/Graphics/SVG/1.1/DTD/svg11.dtd">

<svg width="330" height="330" version="1.1" xmlns="http://www.w3.org/2000/svg">
	<ellipse stroke="black" stroke-width="1" fill="none" cx="166.5" cy="40.5" rx="30" ry="30"/>
	<text x="159.5" y="46.5" font-family="Times New Roman" font-size="20">V</text>
	<ellipse stroke="black" stroke-width="1" fill="none" cx="103.5" cy="117.5" rx="30" ry="30"/>
	<text x="94.5" y="123.5" font-family="Times New Roman" font-size="20">M</text>
	<ellipse stroke="black" stroke-width="1" fill="none" cx="225.5" cy="117.5" rx="30" ry="30"/>
	<text x="218.5" y="123.5" font-family="Times New Roman" font-size="20">X</text>
	<ellipse stroke="black" stroke-width="1" fill="none" cx="206.5" cy="209.5" rx="30" ry="30"/>
	<text x="197.5" y="215.5" font-family="Times New Roman" font-size="20">W</text>
	<ellipse stroke="black" stroke-width="1" fill="none" cx="279.5" cy="209.5" rx="30" ry="30"/>
	<text x="272.5" y="215.5" font-family="Times New Roman" font-size="20">Y</text>
	<ellipse stroke="black" stroke-width="1" fill="none" cx="60.5" cy="209.5" rx="30" ry="30"/>
	<text x="53.5" y="215.5" font-family="Times New Roman" font-size="20">A</text>
	<ellipse stroke="black" stroke-width="1" fill="none" cx="132.5" cy="209.5" rx="30" ry="30"/>
	<text x="125.5" y="215.5" font-family="Times New Roman" font-size="20">O</text>
	<ellipse stroke="black" stroke-width="1" fill="none" cx="103.5" cy="297.5" rx="30" ry="30"/>
	<text x="96.5" y="303.5" font-family="Times New Roman" font-size="20">N</text>
	<polygon stroke="black" stroke-width="1" points="147.503,63.719 122.497,94.281"/>
	<polygon fill="black" stroke-width="1" points="122.497,94.281 131.433,91.256 123.693,84.923"/>
	<polygon stroke="black" stroke-width="1" points="184.746,64.313 207.254,93.687"/>
	<polygon fill="black" stroke-width="1" points="207.254,93.687 206.357,84.296 198.419,90.378"/>
	<polygon stroke="black" stroke-width="1" points="90.797,144.678 73.203,182.322"/>
	<polygon fill="black" stroke-width="1" points="73.203,182.322 81.12,177.192 72.06,172.957"/>
	<polygon stroke="black" stroke-width="1" points="112.519,146.112 123.481,180.888"/>
	<polygon fill="black" stroke-width="1" points="123.481,180.888 125.845,171.755 116.307,174.761"/>
	<polygon stroke="black" stroke-width="1" points="123.11,237.993 112.89,269.007"/>
	<polygon fill="black" stroke-width="1" points="112.89,269.007 120.142,262.974 110.645,259.844"/>
	<polygon stroke="black" stroke-width="1" points="219.432,146.88 212.568,180.12"/>
	<polygon fill="black" stroke-width="1" points="212.568,180.12 219.082,173.297 209.289,171.274"/>
	<polygon stroke="black" stroke-width="1" points="240.686,143.372 264.314,183.628"/>
	<polygon fill="black" stroke-width="1" points="264.314,183.628 264.576,174.197 255.952,179.259"/>
</svg>
