<?xml version="1.0" standalone="no"?>
<!DOCTYPE svg PUBLIC "-//W3C//DTD SVG 1.1//EN" "http://www.w3.org/Graphics/SVG/1.1/DTD/svg11.dtd">

<svg width="600" height="300" version="1.1" xmlns="http://www.w3.org/2000/svg">
	<ellipse stroke="black" stroke-width="1" fill="none" cx="306.5" cy="34.5" rx="30" ry="30"/>
	<text x="300.5" y="40.5" font-family="Times New Roman" font-size="20">P</text>
	<ellipse stroke="black" stroke-width="1" fill="none" cx="84.5" cy="129.5" rx="30" ry="30"/>
	<text x="77.5" y="135.5" font-family="Times New Roman" font-size="20">L</text>
	<ellipse stroke="black" stroke-width="1" fill="none" cx="178.5" cy="129.5" rx="30" ry="30"/>
	<text x="172.5" y="135.5" font-family="Times New Roman" font-size="20">Z</text>
	<ellipse stroke="black" stroke-width="1" fill="none" cx="243.5" cy="129.5" rx="30" ry="30"/>
	<text x="236.5" y="135.5" font-family="Times New Roman" font-size="20">X</text>
	<ellipse stroke="black" stroke-width="1" fill="none" cx="306.5" cy="129.5" rx="30" ry="30"/>
	<text x="299.5" y="135.5" font-family="Times New Roman" font-size="20">C</text>
	<ellipse stroke="black" stroke-width="1" fill="none" cx="369.5" cy="129.5" rx="30" ry="30"/>
	<text x="362.5" y="135.5" font-family="Times New Roman" font-size="20">V</text>
	<ellipse stroke="black" stroke-width="1" fill="none" cx="433.5" cy="129.5" rx="30" ry="30"/>
	<text x="426.5" y="135.5" font-family="Times New Roman" font-size="20">B</text>
	<ellipse stroke="black" stroke-width="1" fill="none" cx="518.5" cy="129.5" rx="30" ry="30"/>
	<text x="511.5" y="135.5" font-family="Times New Roman" font-size="20">N</text>
	<ellipse stroke="black" stroke-width="1" fill="none" cx="115.5" cy="234.5" rx="30" ry="30"/>
	<text x="108.5" y="240.5" font-family="Times New Roman" font-size="20">A</text>
	<ellipse stroke="black" stroke-width="1" fill="none" cx="178.5" cy="234.5" rx="30" ry="30"/>
	<text x="172.5" y="240.5" font-family="Times New Roman" font-size="20">S</text>
	<ellipse stroke="black" stroke-width="1" fill="none" cx="243.5" cy="234.5" rx="30" ry="30"/>
	<text x="236.5" y="240.5" font-family="Times New Roman" font-size="20">D</text>
	<ellipse stroke="black" stroke-width="1" fill="none" cx="306.5" cy="234.5" rx="30" ry="30"/>
	<text x="300.5" y="240.5" font-family="Times New Roman" font-size="20">F</text>
	<ellipse stroke="black" stroke-width="1" fill="none" cx="369.5" cy="234.5" rx="30" ry="30"/>
	<text x="362.5" y="240.5" font-family="Times New Roman" font-size="20">G</text>
	<polygon stroke="black" stroke-width="1" points="278.919,46.303 112.081,117.697"/>
	<polygon fill="black" stroke-width="1" points="112.081,117.697 121.403,119.147 117.469,109.953"/>
	<polygon stroke="black" stroke-width="1" points="282.41,52.379 202.59,111.621"/>
	<polygon fill="black" stroke-width="1" points="202.59,111.621 211.994,110.868 206.034,102.838"/>
	<polygon stroke="black" stroke-width="1" points="289.92,59.502 260.08,104.498"/>
	<polygon fill="black" stroke-width="1" points="260.08,104.498 268.669,100.594 260.335,95.068"/>
	<polygon stroke="black" stroke-width="1" points="306.5,64.5 306.5,99.5"/>
	<polygon fill="black" stroke-width="1" points="306.5,99.5 311.5,91.5 301.5,91.5"/>
	<polygon stroke="black" stroke-width="1" points="323.08,59.502 352.92,104.498"/>
	<polygon fill="black" stroke-width="1" points="352.92,104.498 352.665,95.068 344.331,100.594"/>
	<polygon stroke="black" stroke-width="1" points="330.523,52.47 409.477,111.53"/>
	<polygon fill="black" stroke-width="1" points="409.477,111.53 406.066,102.735 400.076,110.742"/>
	<polygon stroke="black" stroke-width="1" points="333.877,46.768 491.123,117.232"/>
	<polygon fill="black" stroke-width="1" points="491.123,117.232 485.867,109.398 481.778,118.523"/>
	<polygon stroke="black" stroke-width="1" points="220.306,148.527 138.694,215.473"/>
	<polygon fill="black" stroke-width="1" points="138.694,215.473 148.051,214.265 141.709,206.534"/>
	<polygon stroke="black" stroke-width="1" points="227.709,155.008 194.291,208.992"/>
	<polygon fill="black" stroke-width="1" points="194.291,208.992 202.753,204.822 194.25,199.558"/>
	<polygon stroke="black" stroke-width="1" points="243.5,159.5 243.5,204.5"/>
	<polygon fill="black" stroke-width="1" points="243.5,204.5 248.5,196.5 238.5,196.5"/>
	<polygon stroke="black" stroke-width="1" points="258.935,155.225 291.065,208.775"/>
	<polygon fill="black" stroke-width="1" points="291.065,208.775 291.237,199.343 282.662,204.488"/>
	<polygon stroke="black" stroke-width="1" points="266.547,148.706 346.453,215.294"/>
	<polygon fill="black" stroke-width="1" points="346.453,215.294 343.509,206.332 337.107,214.014"/>
</svg>
