<?xml version="1.0" standalone="no"?>
<!DOCTYPE svg PUBLIC "-//W3C//DTD SVG 1.1//EN" "http://www.w3.org/Graphics/SVG/1.1/DTD/svg11.dtd">

<svg width="400" height="400" version="1.1" xmlns="http://www.w3.org/2000/svg">
	<ellipse stroke="black" stroke-width="1" fill="none" cx="161.5" cy="63.5" rx="30" ry="30"/>
	<text x="154.5" y="69.5" font-family="Times New Roman" font-size="20">Q</text>
	<ellipse stroke="black" stroke-width="1" fill="none" cx="54.5" cy="134.5" rx="30" ry="30"/>
	<text x="45.5" y="140.5" font-family="Times New Roman" font-size="20">W</text>
	<ellipse stroke="black" stroke-width="1" fill="none" cx="124.5" cy="294.5" rx="30" ry="30"/>
	<text x="117.5" y="300.5" font-family="Times New Roman" font-size="20">N</text>
	<ellipse stroke="black" stroke-width="1" fill="none" cx="54.5" cy="207.5" rx="30" ry="30"/>
	<text x="47.5" y="213.5" font-family="Times New Roman" font-size="20">Y</text>
	<ellipse stroke="black" stroke-width="1" fill="none" cx="124.5" cy="207.5" rx="30" ry="30"/>
	<text x="117.5" y="213.5" font-family="Times New Roman" font-size="20">U</text>
	<ellipse stroke="black" stroke-width="1" fill="none" cx="192.5" cy="287.5" rx="30" ry="30"/>
	<text x="185.5" y="293.5" font-family="Times New Roman" font-size="20">B</text>
	<ellipse stroke="black" stroke-width="1" fill="none" cx="254.5" cy="207.5" rx="30" ry="30"/>
	<text x="247.5" y="213.5" font-family="Times New Roman" font-size="20">O</text>
	<ellipse stroke="black" stroke-width="1" fill="none" cx="192.5" cy="207.5" rx="30" ry="30"/>
	<text x="189.5" y="213.5" font-family="Times New Roman" font-size="20">I</text>
	<ellipse stroke="black" stroke-width="1" fill="none" cx="277.5" cy="134.5" rx="30" ry="30"/>
	<text x="271.5" y="140.5" font-family="Times New Roman" font-size="20">T</text>
	<ellipse stroke="black" stroke-width="1" fill="none" cx="124.5" cy="134.5" rx="30" ry="30"/>
	<text x="118.5" y="140.5" font-family="Times New Roman" font-size="20">E</text>
	<ellipse stroke="black" stroke-width="1" fill="none" cx="201.5" cy="134.5" rx="30" ry="30"/>
	<text x="194.5" y="140.5" font-family="Times New Roman" font-size="20">R</text>
	<ellipse stroke="black" stroke-width="1" fill="none" cx="322.5" cy="207.5" rx="30" ry="30"/>
	<text x="313.5" y="213.5" font-family="Times New Roman" font-size="20">M</text>
	<polygon stroke="black" stroke-width="1" points="136.503,80.087 79.497,117.913"/>
	<polygon fill="black" stroke-width="1" points="79.497,117.913 88.928,117.656 83.399,109.323"/>
	<polygon stroke="black" stroke-width="1" points="147.636,90.104 138.364,107.896"/>
	<polygon fill="black" stroke-width="1" points="138.364,107.896 146.495,103.112 137.627,98.491"/>
	<polygon stroke="black" stroke-width="1" points="176.225,89.637 186.775,108.363"/>
	<polygon fill="black" stroke-width="1" points="186.775,108.363 187.204,98.938 178.492,103.847"/>
	<polygon stroke="black" stroke-width="1" points="187.088,79.161 251.912,118.839"/>
	<polygon fill="black" stroke-width="1" points="251.912,118.839 247.699,110.398 242.479,118.927"/>
	<polygon stroke="black" stroke-width="1" points="54.5,164.5 54.5,177.5"/>
	<polygon fill="black" stroke-width="1" points="54.5,177.5 59.5,169.5 49.5,169.5"/>
	<polygon stroke="black" stroke-width="1" points="124.5,164.5 124.5,177.5"/>
	<polygon fill="black" stroke-width="1" points="124.5,177.5 129.5,169.5 119.5,169.5"/>
	<polygon stroke="black" stroke-width="1" points="197.829,164.275 196.171,177.725"/>
	<polygon fill="black" stroke-width="1" points="196.171,177.725 202.112,170.397 192.187,169.174"/>
	<polygon stroke="black" stroke-width="1" points="219.125,158.776 236.875,183.224"/>
	<polygon fill="black" stroke-width="1" points="236.875,183.224 236.221,173.812 228.128,179.687"/>
	<polygon stroke="black" stroke-width="1" points="293.242,160.038 306.758,181.962"/>
	<polygon fill="black" stroke-width="1" points="306.758,181.962 306.816,172.528 298.303,177.776"/>
	<polygon stroke="black" stroke-width="1" points="192.5,237.5 192.5,257.5"/>
	<polygon fill="black" stroke-width="1" points="192.5,257.5 197.5,249.5 187.5,249.5"/>
	<polygon stroke="black" stroke-width="1" points="268.485,163.113 263.515,178.887"/>
	<polygon fill="black" stroke-width="1" points="263.515,178.887 270.688,172.759 261.15,169.754"/>
	<polygon stroke="black" stroke-width="1" points="124.5,237.5 124.5,264.5"/>
	<polygon fill="black" stroke-width="1" points="124.5,264.5 129.5,256.5 119.5,256.5"/>
</svg>