<?xml version="1.0" standalone="no"?>
<!DOCTYPE svg PUBLIC "-//W3C//DTD SVG 1.1//EN" "http://www.w3.org/Graphics/SVG/1.1/DTD/svg11.dtd">

<svg width="800" height="600" version="1.1" xmlns="http://www.w3.org/2000/svg">
	<ellipse stroke="black" stroke-width="1" fill="none" cx="348.5" cy="102.5" rx="30" ry="30"/>
	<text x="341.5" y="108.5" font-family="Times New Roman" font-size="20">G</text>
	<ellipse stroke="black" stroke-width="1" fill="none" cx="348.5" cy="187.5" rx="30" ry="30"/>
	<text x="341.5" y="193.5" font-family="Times New Roman" font-size="20">K</text>
	<ellipse stroke="black" stroke-width="1" fill="none" cx="348.5" cy="273.5" rx="30" ry="30"/>
	<text x="341.5" y="279.5" font-family="Times New Roman" font-size="20">Q</text>
	<ellipse stroke="black" stroke-width="1" fill="none" cx="348.5" cy="358.5" rx="30" ry="30"/>
	<text x="342.5" y="364.5" font-family="Times New Roman" font-size="20">S</text>
	<ellipse stroke="black" stroke-width="1" fill="none" cx="348.5" cy="439.5" rx="30" ry="30"/>
	<text x="342.5" y="445.5" font-family="Times New Roman" font-size="20">T</text>
	<ellipse stroke="black" stroke-width="1" fill="none" cx="348.5" cy="524.5" rx="30" ry="30"/>
	<text x="342.5" y="530.5" font-family="Times New Roman" font-size="20">E</text>
	<polygon stroke="black" stroke-width="1" points="348.5,132.5 348.5,157.5"/>
	<polygon fill="black" stroke-width="1" points="348.5,157.5 353.5,149.5 343.5,149.5"/>
	<polygon stroke="black" stroke-width="1" points="348.5,217.5 348.5,243.5"/>
	<polygon fill="black" stroke-width="1" points="348.5,243.5 353.5,235.5 343.5,235.5"/>
	<polygon stroke="black" stroke-width="1" points="348.5,303.5 348.5,328.5"/>
	<polygon fill="black" stroke-width="1" points="348.5,328.5 353.5,320.5 343.5,320.5"/>
	<polygon stroke="black" stroke-width="1" points="348.5,388.5 348.5,409.5"/>
	<polygon fill="black" stroke-width="1" points="348.5,409.5 353.5,401.5 343.5,401.5"/>
	<polygon stroke="black" stroke-width="1" points="348.5,469.5 348.5,494.5"/>
	<polygon fill="black" stroke-width="1" points="348.5,494.5 353.5,486.5 343.5,486.5"/>
	<path stroke="black" stroke-width="1" fill="none" d="M 376.048,114.322 A 223.678,223.678 0 0 1 376.048,512.678"/>
	<polygon fill="black" stroke-width="1" points="376.048,114.322 380.897,122.414 385.447,113.51"/>
</svg>
