<?xml version="1.0" standalone="no"?>
<!DOCTYPE svg PUBLIC "-//W3C//DTD SVG 1.1//EN" "http://www.w3.org/Graphics/SVG/1.1/DTD/svg11.dtd">

<svg width="450" height="420" version="1.1" xmlns="http://www.w3.org/2000/svg">
	<ellipse stroke="black" stroke-width="1" fill="none" cx="150.5" cy="33.5" rx="30" ry="30"/>
	<text x="140.5" y="39.5" font-family="Times New Roman" font-size="20">30</text>
	<ellipse stroke="black" stroke-width="1" fill="none" cx="93.5" cy="110.5" rx="30" ry="30"/>
	<text x="83.5" y="116.5" font-family="Times New Roman" font-size="20">10</text>
	<ellipse stroke="black" stroke-width="1" fill="none" cx="218.5" cy="116.5" rx="30" ry="30"/>
	<text x="208.5" y="122.5" font-family="Times New Roman" font-size="20">40</text>
	<ellipse stroke="black" stroke-width="1" fill="none" cx="52.5" cy="198.5" rx="30" ry="30"/>
	<text x="47.5" y="204.5" font-family="Times New Roman" font-size="20">5</text>
	<ellipse stroke="black" stroke-width="1" fill="none" cx="126.5" cy="198.5" rx="30" ry="30"/>
	<text x="116.5" y="204.5" font-family="Times New Roman" font-size="20">20</text>
	<ellipse stroke="black" stroke-width="1" fill="none" cx="200.5" cy="198.5" rx="30" ry="30"/>
	<text x="190.5" y="204.5" font-family="Times New Roman" font-size="20">35</text>
	<ellipse stroke="black" stroke-width="1" fill="none" cx="282.5" cy="198.5" rx="30" ry="30"/>
	<text x="272.5" y="204.5" font-family="Times New Roman" font-size="20">50</text>
	<ellipse stroke="black" stroke-width="1" fill="none" cx="263.5" cy="293.5" rx="30" ry="30"/>
	<text x="253.5" y="299.5" font-family="Times New Roman" font-size="20">45</text>
	<ellipse stroke="black" stroke-width="1" fill="none" cx="346.5" cy="293.5" rx="30" ry="30"/>
	<text x="336.5" y="299.5" font-family="Times New Roman" font-size="20">60</text>
	<ellipse stroke="black" stroke-width="1" fill="none" cx="302.5" cy="386.5" rx="30" ry="30"/>
	<text x="292.5" y="392.5" font-family="Times New Roman" font-size="20">49</text>
	<ellipse stroke="black" stroke-width="1" fill="none" cx="406.5" cy="379.5" rx="30" ry="30"/>
	<text x="396.5" y="385.5" font-family="Times New Roman" font-size="20">70</text>
	<polygon stroke="black" stroke-width="1" points="132.651,57.612 111.349,86.388"/>
	<polygon fill="black" stroke-width="1" points="111.349,86.388 120.128,82.933 112.09,76.983"/>
	<polygon stroke="black" stroke-width="1" points="169.512,56.706 199.488,93.294"/>
	<polygon fill="black" stroke-width="1" points="199.488,93.294 198.285,83.937 190.55,90.274"/>
	<polygon stroke="black" stroke-width="1" points="80.83,137.693 65.17,171.307"/>
	<polygon fill="black" stroke-width="1" points="65.17,171.307 73.08,166.167 64.016,161.943"/>
	<polygon stroke="black" stroke-width="1" points="104.034,138.59 115.966,170.41"/>
	<polygon fill="black" stroke-width="1" points="115.966,170.41 117.839,161.164 108.476,164.675"/>
	<polygon stroke="black" stroke-width="1" points="212.068,145.802 206.932,169.198"/>
	<polygon fill="black" stroke-width="1" points="206.932,169.198 213.531,162.456 203.764,160.312"/>
	<polygon stroke="black" stroke-width="1" points="236.958,140.149 264.042,174.851"/>
	<polygon fill="black" stroke-width="1" points="264.042,174.851 263.061,165.468 255.178,171.62"/>
	<polygon stroke="black" stroke-width="1" points="276.617,227.917 269.383,264.083"/>
	<polygon fill="black" stroke-width="1" points="269.383,264.083 275.855,257.219 266.05,255.257"/>
	<polygon stroke="black" stroke-width="1" points="299.262,223.381 329.738,268.619"/>
	<polygon fill="black" stroke-width="1" points="329.738,268.619 329.415,259.191 321.122,264.778"/>
	<polygon stroke="black" stroke-width="1" points="333.67,320.618 315.33,359.382"/>
	<polygon fill="black" stroke-width="1" points="315.33,359.382 323.271,354.289 314.232,350.012"/>
	<polygon stroke="black" stroke-width="1" points="363.665,318.104 389.335,354.896"/>
	<polygon fill="black" stroke-width="1" points="389.335,354.896 388.858,345.474 380.656,351.196"/>
</svg>
