<?xml version="1.0" standalone="no"?>
<!DOCTYPE svg PUBLIC "-//W3C//DTD SVG 1.1//EN" "http://www.w3.org/Graphics/SVG/1.1/DTD/svg11.dtd">

<svg width="440" height="230" version="1.1" xmlns="http://www.w3.org/2000/svg">
	<ellipse stroke="black" stroke-width="1" fill="none" cx="72.5" cy="44.5" rx="30" ry="30"/>
	<ellipse stroke="black" stroke-width="1" fill="none" cx="34.5" cy="118.5" rx="30" ry="30"/>
	<ellipse stroke="black" stroke-width="1" fill="none" cx="109.5" cy="118.5" rx="30" ry="30"/>
	<ellipse stroke="black" stroke-width="1" fill="none" cx="86.5" cy="199.5" rx="30" ry="30"/>
	<ellipse stroke="black" stroke-width="1" fill="none" cx="158.5" cy="199.5" rx="30" ry="30"/>
	<ellipse stroke="black" stroke-width="1" fill="none" cx="338.5" cy="44.5" rx="30" ry="30"/>
	<ellipse stroke="black" stroke-width="1" fill="none" cx="269.5" cy="118.5" rx="30" ry="30"/>
	<ellipse stroke="black" stroke-width="1" fill="none" cx="338.5" cy="118.5" rx="30" ry="30"/>
	<ellipse stroke="black" stroke-width="1" fill="none" cx="407.5" cy="118.5" rx="30" ry="30"/>
	<ellipse stroke="black" stroke-width="1" fill="none" cx="298.5" cy="199.5" rx="30" ry="30"/>
	<ellipse stroke="black" stroke-width="1" fill="none" cx="374.5" cy="199.5" rx="30" ry="30"/>
	<polygon stroke="black" stroke-width="1" points="58.796,71.187 48.204,91.813"/>
	<polygon fill="black" stroke-width="1" points="48.204,91.813 56.306,86.98 47.411,82.412"/>
	<polygon stroke="black" stroke-width="1" points="85.916,71.333 96.084,91.667"/>
	<polygon fill="black" stroke-width="1" points="96.084,91.667 96.978,82.276 88.034,86.748"/>
	<polygon stroke="black" stroke-width="1" points="101.305,147.359 94.695,170.641"/>
	<polygon fill="black" stroke-width="1" points="94.695,170.641 101.69,164.311 92.07,161.579"/>
	<polygon stroke="black" stroke-width="1" points="125.028,144.169 142.972,173.831"/>
	<polygon fill="black" stroke-width="1" points="142.972,173.831 143.109,164.398 134.553,169.574"/>
	<polygon stroke="black" stroke-width="1" points="318.041,66.442 289.959,96.558"/>
	<polygon fill="black" stroke-width="1" points="289.959,96.558 299.072,94.117 291.758,87.298"/>
	<polygon stroke="black" stroke-width="1" points="338.5,74.5 338.5,88.5"/>
	<polygon fill="black" stroke-width="1" points="338.5,88.5 343.5,80.5 333.5,80.5"/>
	<polygon stroke="black" stroke-width="1" points="358.959,66.442 387.041,96.558"/>
	<polygon fill="black" stroke-width="1" points="387.041,96.558 385.242,87.298 377.928,94.117"/>
	<polygon stroke="black" stroke-width="1" points="325.217,145.399 311.783,172.601"/>
	<polygon fill="black" stroke-width="1" points="311.783,172.601 319.809,167.642 310.843,163.214"/>
	<polygon stroke="black" stroke-width="1" points="350.684,145.914 362.316,172.086"/>
	<polygon fill="black" stroke-width="1" points="362.316,172.086 363.636,162.744 354.498,166.806"/>
</svg>
